<svg width="61" height="60" fill="none" xmlns="http://www.w3.org/2000/svg"><path d="M30.29 30.18a7.19 7.19 0 0 0 5.27-12.05.88.88 0 1 0-1.29 1.2 5.4 5.4 0 0 1-3.98 9.1 5.43 5.43 0 1 1 1.18-10.72.88.88 0 1 0 .38-1.71 7.19 7.19 0 1 0-1.56 14.19Z" fill="#28A928"/><path d="M41.13 48.7c-1.08 0-2.15.32-3.06.9a4.13 4.13 0 0 0-4.4-1.73v-1.86a3.54 3.54 0 0 0 2.48-2.71l.5-2.54a2.06 2.06 0 0 0 1.61-1.56l.65-2.95h5.15c1.34 0 2.43-1.1 2.43-2.44v-2.2a.88.88 0 1 0-1.75 0v2.2c0 .38-.3.68-.68.68H39.3l.68-3.07c.98-4.43 1.06-8.95.3-13.32l.64.57a11.62 11.62 0 0 1 3.82 8.6v.6a.88.88 0 1 0 1.75 0v-.6c0-3.76-1.6-7.37-4.4-9.9l-2.44-2.21A34.69 34.69 0 0 0 31.79.64a1.95 1.95 0 0 0-2.89 0 34.69 34.69 0 0 0-7.86 14.52l-2.44 2.21a13.38 13.38 0 0 0-4.4 9.9v.6a.88.88 0 1 0 1.75 0v-.6c0-3.27 1.4-6.4 3.82-8.6l.63-.57c-.74 4.37-.66 8.89.31 13.32l.68 3.07h-4.76a.68.68 0 0 1-.68-.68v-2.2a.88.88 0 1 0-1.75 0v2.2c0 1.35 1.09 2.44 2.43 2.44h5.15l.65 2.95c.16.76.76 1.35 1.5 1.54l.5 2.55A3.54 3.54 0 0 0 27 46.05v1.83a4.1 4.1 0 0 0-4.39 1.73 5.65 5.65 0 1 0-.79 9.92.88.88 0 0 0-.7-1.6A3.86 3.86 0 0 1 16.7 57 3.89 3.89 0 0 1 22 51.3a1.25 1.25 0 0 0 1.92-.44 2.37 2.37 0 0 1 3.1-1.15 1.25 1.25 0 0 0 1.76-1.15v-2.42h3.15v2.42a1.25 1.25 0 0 0 1.77 1.14 2.37 2.37 0 0 1 3.09 1.16c.16.35.47.6.84.69.38.09.77 0 1.08-.25.7-.56 1.54-.85 2.43-.85a3.87 3.87 0 0 1 3.88 4.16 3.92 3.92 0 0 1-5.44 3.3.88.88 0 0 0-.71 1.6 5.67 5.67 0 0 0 7.9-4.78 5.67 5.67 0 0 0-5.64-6.04ZM26.08 7.48h8.53c.36.62.7 1.25 1.01 1.89H25.07c.31-.64.65-1.27 1-1.9Zm4.12-5.66c.05-.05.1-.06.15-.06.03 0 .1 0 .14.06a32.82 32.82 0 0 1 3.04 3.9h-6.37c.91-1.36 1.92-2.67 3.04-3.9Zm-7.77 29.22a32.98 32.98 0 0 1 1.83-19.91h12.17a32.98 32.98 0 0 1 1.83 19.91l-1.71 7.78a.28.28 0 0 1-.28.23h-3.4l.14-5.25a1.96 1.96 0 0 0-1.97-2.03h-1.39a1.96 1.96 0 0 0-1.97 2.03l.14 5.25h-3.4a.28.28 0 0 1-.28-.23l-1.71-7.78Zm8.83 2.72-.17 6.22c0 .12-.1.21-.22.21h-1.05a.22.22 0 0 1-.22-.21l-.17-6.22c0-.08.04-.13.06-.16a.22.22 0 0 1 .16-.07h1.39c.07 0 .13.03.16.07.03.03.06.08.06.16Zm-5.12 9.2-.42-2.16h2.3c.31.68 1 1.15 1.8 1.15h1.05c.8 0 1.49-.47 1.8-1.15h2.18l-.42 2.16c-.16.83-.9 1.44-1.75 1.44H27.9c-.85 0-1.58-.6-1.75-1.44ZM12.3 50.28a.88.88 0 0 0-1.16.46 9.11 9.11 0 0 0-.37 6.18.88.88 0 1 0 1.69-.5 7.4 7.4 0 0 1 .3-5 .88.88 0 0 0-.47-1.14ZM49.54 50.74a.88.88 0 1 0-1.6.69 7.47 7.47 0 0 1 .3 5 .88.88 0 0 0 1.68.5 9.1 9.1 0 0 0-.38-6.2Z" fill="#28A928"/><path d="M24.66 52.75a.88.88 0 1 0 0 1.76c1.6 0 2.9 1.3 2.9 2.9a.88.88 0 1 0 1.75 0 4.66 4.66 0 0 0-4.65-4.66ZM36.03 52.75a4.66 4.66 0 0 0-4.65 4.66.88.88 0 1 0 1.75 0c0-1.6 1.3-2.9 2.9-2.9a.88.88 0 1 0 0-1.76Z" fill="#28A928"/></svg>