<svg width="281" height="44" fill="none" xmlns="http://www.w3.org/2000/svg"><g clip-path="url(#a)" fill-rule="evenodd" clip-rule="evenodd"><path d="M271.41 33.93c-2.24 1.9-4.65 3.88-7.76 3.26a4.48 4.48 0 0 1-2.13-1.12c-.6-.56-1.01-1.27-1.2-2.05-.37-1.4-.28-2.73-.1-4.17l12.62-.03-.34-.43a85.3 85.3 0 0 1-14.8-24.84 98.7 98.7 0 0 1-14.8 25.32l12.36-.02c-.07 1.65.31 3.66-.45 5.07-.77 1.56-2.57 2.33-4.24 2.36-4.99-.46-8.3-4.84-10.2-8.97-2.21-5.1-1.4-12.07 2.07-16.42 4.83-6.4 13.36-8.98 21.3-6.53a18.72 18.72 0 0 1 11.28 10.07c2.52 5.93 1.04 13.86-3.6 18.5Zm7.13-21.95a24.06 24.06 0 0 0-7.67-8.25c-6.93-4.58-17.21-4.94-24.46-1.09-7.42 3.8-12.54 11.76-12 20.4.46 9.27 7.22 17.34 15.97 19.86 9.3 2.94 19.8-.19 25.82-7.34 5.18-6.31 6.49-16.24 2.34-23.58Z" fill="#007A33"/><path d="M218.75 30.56c.36.48.48 1.44.14 2.27-.3.77-.72 1.22-1.52 1.54-1.1.45-2.53.03-3-.5 0 0-3.74-4.3-5.81-6.74-.37-.36-.56-.69-.94-1.05l-9.98.04c-2.48.01-5.4-2.77-5.4-5v-.85l18.59-.02c.7 0 1.47-.61 1.85-1.41.35-.72.34-1.3 0-2.03-.4-.87-1.32-1.48-2.04-1.48l-20.22.05-.06.2v16.95c0 1.13-1.65 2.58-3.27 2.44-1.5-.14-2.73-1.57-2.73-2.57l.02-17.97c0-1.88.59-2.6 1.84-3.64 1.23-1 2.33-1.22 3.96-1.22l21.94.02c3.13 0 6.06 2.24 7.24 5.46 1.26 3.45.1 6.5-2.74 9-.63.55-1.78 1.23-1.78 1.23l3.91 5.28Zm-44.7 3.55c-.95.83-2.5 1-3.56.53-1.7-1.42-2.87-3.19-4.23-4.77l-22.78-.04-2.7 3.43c-.85 1.09-1.93 1.83-3.59 1.56a2.79 2.79 0 0 1-1.97-1.6c-.44-.95-.4-1.86.2-2.73l14.44-18c1.2-1.71 2.51-2.93 4.78-2.92 3.55.04 3.8.89 6.25 3.85 3.42 4.48 10.32 12.87 13.81 17.6.45 1.07-.07 2.22-.65 3.09Zm-50.64-8.12h-14.82a6.13 6.13 0 0 1-4.69-3.44c-.29-.67-.3-1.61-.39-2.31l.77.01h17.9c.78 0 1.52-.66 1.88-1.5.34-.77.32-1.39-.09-2.12a2.46 2.46 0 0 0-2.06-1.32h-19.98l-.18.17v16.65c0 1.55-1.44 2.7-3.13 2.66-1.49-.02-2.88-1.16-2.88-2.63V14.33c0-1.47.6-2.34 1.71-3.33a5.94 5.94 0 0 1 3.83-1.43l22.03.02c4.25 0 7.7 4.11 7.58 8.41-.11 4.15-3.96 7.99-7.48 7.99Zm-41.36 6.18c-2.27 2.64-5.38 2.67-8.81 2.67l-19.98-.02c-2.16 0-3.99-2.02-4.3-4.08v-1.05l26.36.03c.88 0 2.01-1.15 2.04-2.32.04-1.27-.9-2.47-2.24-2.47h-19c-3.28 0-6.63-2.9-7.17-6.53-.43-2.94.59-5.16 3-7.05 1.84-1.43 3.23-1.84 5.78-1.85l17.57-.02c2.72-.05 5.67.4 6.94 2.82.39.75.59 1.55.56 2.54L58 14.85c-.76 0-1.95.4-2.38 1.34-.54 1.16.08 2.49 1.31 3 .5.2 1.36.18 1.36.18h18.05a8.05 8.05 0 0 1 7.22 5.38c.97 2.8.47 5.13-1.5 7.42ZM0 0v44h225.15l.05-44H0Z" fill="#E4002B"/><path d="M155.88 16.34c-.19-.02-.38.24-.38.24l-7.18 7.53h14.42c-2.04-2.6-4.4-5-6.54-7.5 0 0-.14-.26-.32-.27Z" fill="#E4002B"/></g><defs><clipPath id="a"><path fill="#fff" d="M0 0h281v44H0z"/></clipPath></defs></svg>