<svg width="34" height="34" viewBox="0 0 34 34" fill="none" xmlns="http://www.w3.org/2000/svg">
    <g clip-path="url(#clip0_31_772)">
        <g clip-path="url(#clip1_31_772)">
            <path d="M14.7905 19.9029L20.1578 16.8117L14.7905 13.7205V19.9029Z" fill="#28A928"/>
            <path d="M16.8457 0.311768C7.7344 0.311768 0.345703 7.70046 0.345703 16.8118C0.345703 25.9231 7.7344 33.3118 16.8457 33.3118C25.957 33.3118 33.3457 25.9231 33.3457 16.8118C33.3457 7.70046 25.957 0.311768 16.8457 0.311768Z" fill="#28A928"/>
            <path fill-rule="evenodd" clip-rule="evenodd" d="M26.7665 12.1449C26.9135 11.6548 26.7665 11.3118 26.0804 11.3118H23.7932C23.2051 11.3118 22.9437 11.6222 22.7967 11.9652C22.7967 11.9652 21.6368 14.8078 19.9868 16.6375C19.4477 17.1766 19.219 17.34 18.9249 17.34C18.7779 17.34 18.5655 17.1766 18.5655 16.6865V12.1449C18.5655 11.5568 18.4021 11.3118 17.912 11.3118H14.318C13.9586 11.3118 13.7299 11.5895 13.7299 11.8345C13.7299 12.39 14.5467 12.5207 14.6447 14.0563V17.4216C14.6447 18.1568 14.514 18.2875 14.22 18.2875C13.4521 18.2875 11.5571 15.4449 10.4462 12.1776C10.2175 11.5732 10.0051 11.3118 9.41699 11.3118H7.12986C6.4764 11.3118 6.3457 11.6222 6.3457 11.9652C6.3457 12.5697 7.11352 15.5756 9.9561 19.5454C11.8511 22.2573 14.514 23.7275 16.9318 23.7275C18.3858 23.7275 18.5655 23.4008 18.5655 22.8454V20.787C18.5655 20.1335 18.6962 20.0028 19.17 20.0028C19.513 20.0028 20.0848 20.1662 21.4408 21.4731C22.9927 23.0251 23.2541 23.7275 24.12 23.7275H26.4071C27.0606 23.7275 27.3873 23.4008 27.1912 22.7637C26.9789 22.1266 26.2437 21.1954 25.2635 20.0845C24.7244 19.4474 23.9239 18.7776 23.6952 18.4345C23.3521 17.9934 23.4502 17.7974 23.6952 17.4216C23.6952 17.4053 26.4888 13.4845 26.7665 12.1449Z" fill="white"/>
        </g>
    </g>
    <defs>
        <clipPath id="clip0_31_772">
            <rect width="33" height="33" fill="white" transform="translate(0.345703 0.311768)"/>
        </clipPath>
        <clipPath id="clip1_31_772">
            <rect width="33" height="33" fill="white" transform="translate(0.345703 0.311768)"/>
        </clipPath>
    </defs>
</svg>
