<svg width="61" height="60" fill="none" xmlns="http://www.w3.org/2000/svg"><path d="M53.7 34.42h-.78v-6.95c0-1.1-.55-2.08-1.39-2.67v-.95a2.5 2.5 0 0 0-2.49-2.5h-.57l2.2-3.23a2.38 2.38 0 0 0-.62-3.3L35.07 4.6a2.36 2.36 0 0 0-3.3.62L18.83 24.2h-3.6l.87-8.78c0-.1.07-.19.16-.22A5.6 5.6 0 0 0 19 12.98a.26.26 0 0 1 .25-.11l5.64.55a.74.74 0 0 0 .14-1.46l-5.64-.56a1.72 1.72 0 0 0-1.63.8 4.11 4.11 0 0 1-2 1.62c-.62.23-1.05.79-1.11 1.45l-.89 8.93h-.93l1.37-13.9c.05-.5.5-.86 1-.81l11.4 1.13a.74.74 0 0 0 .14-1.47l-11.4-1.12a2.39 2.39 0 0 0-2.6 2.13l-1.11 11.2H9.74a2.5 2.5 0 0 0-2.49 2.5v.64a3.27 3.27 0 0 0-1.9 2.97v25.07c0 1.8 1.46 3.27 3.26 3.27h41.04c1.8 0 3.27-1.47 3.27-3.27v-6.96h.77c.91 0 1.66-.74 1.66-1.65v-7.85c0-.91-.75-1.66-1.66-1.66Zm-4.66-11.59c.57 0 1.02.46 1.02 1.02v.38a3.28 3.28 0 0 0-.4-.03h-3.13l.93-1.37h1.58ZM32.98 6.06a.9.9 0 0 1 1.26-.24l14.98 10.2c.41.29.52.86.24 1.27l-4.7 6.9h-1.14l2.3-3.38c.38-.55.41-1.25.09-1.82a4.11 4.11 0 0 1-.5-2.54c.1-.65-.2-1.28-.74-1.65l-7.76-5.29a1.72 1.72 0 0 0-1.8-.09c-.78.43-1.68.6-2.55.47-.65-.09-1.3.2-1.67.74L21.75 24.2h-1.13L32.98 6.06Zm.32 12.5c-3.2 0-5.83 2.49-6.04 5.64h-3.73l8.68-12.74a.26.26 0 0 1 .25-.11 5.6 5.6 0 0 0 3.45-.64.26.26 0 0 1 .27.02l7.76 5.29c.09.05.13.15.12.24a5.59 5.59 0 0 0 .67 3.45c.04.09.04.2-.02.27l-2.87 4.22h-2.5a6.07 6.07 0 0 0-6.04-5.65Zm4.57 5.64h-9.14a4.6 4.6 0 0 1 9.14 0Zm-29.15-.35c0-.56.46-1.02 1.02-1.02h1.74l-.13 1.37H8.72v-.35Zm-1.9 3.62c0-1 .8-1.8 1.8-1.8h41.03c1 0 1.8.8 1.8 1.8v2.04H6.82v-2.04Zm44.63 25.07c0 .99-.8 1.8-1.8 1.8H8.61c-.99 0-1.8-.81-1.8-1.8V50.5h3.97a.74.74 0 0 0 0-1.47H6.82V30.98h44.63v3.44h-7a5.58 5.58 0 0 0-5.01 3.15l-.01.02-.02.04a5.56 5.56 0 0 0 5.05 7.95h6.99v3.45H15.49a.74.74 0 0 0 0 1.47h35.96v2.04Zm2.42-8.61c0 .1-.08.18-.18.18h-9.23a4.11 4.11 0 0 1 0-8.21h9.23c.1 0 .18.08.18.18v7.85Z" fill="#28A928"/></svg>