<svg width="34" height="34" viewBox="0 0 34 34" fill="none" xmlns="http://www.w3.org/2000/svg">
    <g clip-path="url(#clip0_31_751)">
        <path d="M20.0039 16.8118C20.0039 18.556 18.59 19.97 16.8457 19.97C15.1014 19.97 13.6875 18.556 13.6875 16.8118C13.6875 15.0675 15.1014 13.6536 16.8457 13.6536C18.59 13.6536 20.0039 15.0675 20.0039 16.8118Z" fill="#28A928"/>
        <path d="M24.2317 11.224C24.0798 10.8126 23.8376 10.4402 23.5229 10.1346C23.2173 9.81989 22.8452 9.57768 22.4335 9.42587C22.0997 9.2962 21.5981 9.14187 20.6744 9.09982C19.6751 9.05425 19.3755 9.04443 16.8457 9.04443C14.3157 9.04443 14.0161 9.054 13.0171 9.09957C12.0933 9.14187 11.5915 9.2962 11.258 9.42587C10.8463 9.57768 10.4739 9.81989 10.1685 10.1346C9.85383 10.4402 9.61163 10.8124 9.45956 11.224C9.3299 11.5579 9.17556 12.0596 9.13351 12.9834C9.08794 13.9824 9.07812 14.282 9.07812 16.812C9.07812 19.3418 9.08794 19.6414 9.13351 20.6407C9.17556 21.5645 9.3299 22.066 9.45956 22.3998C9.61163 22.8115 9.85358 23.1836 10.1683 23.4892C10.4739 23.8039 10.8461 24.0461 11.2577 24.198C11.5915 24.3279 12.0933 24.4822 13.0171 24.5243C14.0161 24.5698 14.3154 24.5794 16.8455 24.5794C19.3758 24.5794 19.6754 24.5698 20.6741 24.5243C21.5979 24.4822 22.0997 24.3279 22.4335 24.198C23.2598 23.8792 23.9129 23.2261 24.2317 22.3998C24.3613 22.066 24.5157 21.5645 24.558 20.6407C24.6035 19.6414 24.6131 19.3418 24.6131 16.812C24.6131 14.282 24.6035 13.9824 24.558 12.9834C24.5159 12.0596 24.3616 11.5579 24.2317 11.224ZM16.8457 21.677C14.1586 21.677 11.9803 19.4989 11.9803 16.8118C11.9803 14.1246 14.1586 11.9466 16.8457 11.9466C19.5326 11.9466 21.7109 14.1246 21.7109 16.8118C21.7109 19.4989 19.5326 21.677 16.8457 21.677ZM21.9033 12.8912C21.2754 12.8912 20.7663 12.3821 20.7663 11.7542C20.7663 11.1263 21.2754 10.6172 21.9033 10.6172C22.5312 10.6172 23.0403 11.1263 23.0403 11.7542C23.04 12.3821 22.5312 12.8912 21.9033 12.8912Z" fill="#28A928"/>
        <path d="M16.8457 0.311768C7.7344 0.311768 0.345703 7.70046 0.345703 16.8118C0.345703 25.9231 7.7344 33.3118 16.8457 33.3118C25.957 33.3118 33.3457 25.9231 33.3457 16.8118C33.3457 7.70046 25.957 0.311768 16.8457 0.311768ZM26.2632 20.718C26.2173 21.7266 26.057 22.4152 25.8228 23.0179C25.3306 24.2906 24.3245 25.2967 23.0518 25.7889C22.4493 26.023 21.7605 26.1832 20.7522 26.2292C19.7418 26.2753 19.419 26.2864 16.846 26.2864C14.2726 26.2864 13.9501 26.2753 12.9395 26.2292C11.9312 26.1832 11.2423 26.023 10.6398 25.7889C10.0074 25.551 9.43485 25.1781 8.96152 24.6959C8.47964 24.2229 8.10677 23.6501 7.86884 23.0179C7.6347 22.4154 7.47432 21.7266 7.4285 20.7182C7.38192 19.7076 7.37109 19.3849 7.37109 16.8118C7.37109 14.2387 7.38192 13.9159 7.42825 12.9056C7.47407 11.897 7.63419 11.2084 7.86834 10.6056C8.10626 9.97344 8.47939 9.40067 8.96152 8.92759C9.4346 8.44545 10.0074 8.07258 10.6396 7.83466C11.2423 7.60051 11.9309 7.44038 12.9395 7.39431C13.9498 7.34824 14.2726 7.33716 16.8457 7.33716C19.4188 7.33716 19.7416 7.34824 20.7519 7.39456C21.7605 7.44038 22.4491 7.60051 23.0518 7.8344C23.684 8.07233 24.2568 8.44545 24.7301 8.92759C25.212 9.40092 25.5851 9.97344 25.8228 10.6056C26.0572 11.2084 26.2173 11.897 26.2634 12.9056C26.3095 13.9159 26.3203 14.2387 26.3203 16.8118C26.3203 19.3849 26.3095 19.7076 26.2632 20.718Z" fill="#28A928"/>
    </g>
    <defs>
        <clipPath id="clip0_31_751">
            <rect width="33" height="33" fill="white" transform="translate(0.345703 0.311768)"/>
        </clipPath>
    </defs>
</svg>
