<svg width="34" height="34" viewBox="0 0 34 34" fill="none" xmlns="http://www.w3.org/2000/svg">
    <g clip-path="url(#clip0_31_768)">
        <g clip-path="url(#clip1_31_768)">
            <path d="M15.1245 19.9029L20.4917 16.8117L15.1245 13.7205V19.9029Z" fill="#28A928"/>
            <path d="M17.1797 0.311768C8.06838 0.311768 0.679688 7.70046 0.679688 16.8118C0.679688 25.9231 8.06838 33.3118 17.1797 33.3118C26.291 33.3118 33.6797 25.9231 33.6797 16.8118C33.6797 7.70046 26.291 0.311768 17.1797 0.311768ZM27.4897 16.8286C27.4897 16.8286 27.4897 20.1749 27.0652 21.7885C26.8273 22.6717 26.1309 23.3681 25.2477 23.6058C23.6341 24.0305 17.1797 24.0305 17.1797 24.0305C17.1797 24.0305 10.7422 24.0305 9.11172 23.5889C8.22851 23.3512 7.53211 22.6546 7.29419 21.7714C6.86945 20.1749 6.86945 16.8118 6.86945 16.8118C6.86945 16.8118 6.86945 13.4657 7.29419 11.8521C7.53186 10.9689 8.24538 10.2554 9.11172 10.0178C10.7253 9.59302 17.1797 9.59302 17.1797 9.59302C17.1797 9.59302 23.6341 9.59302 25.2477 10.0346C26.1309 10.2723 26.8273 10.9689 27.0652 11.8521C27.5068 13.4657 27.4897 16.8286 27.4897 16.8286Z" fill="#28A928"/>
        </g>
    </g>
    <defs>
        <clipPath id="clip0_31_768">
            <rect width="33" height="33" fill="white" transform="translate(0.679688 0.311768)"/>
        </clipPath>
        <clipPath id="clip1_31_768">
            <rect width="33" height="33" fill="white" transform="translate(0.679688 0.311768)"/>
        </clipPath>
    </defs>
</svg>
