<svg width="61" height="60" fill="none" xmlns="http://www.w3.org/2000/svg"><path d="M30.35 8.44c5.3 0 10.42 1.95 14.37 5.49l1.25-1.4a23.44 23.44 0 0 0-31.25 0l1.25 1.4a21.52 21.52 0 0 1 14.38-5.5ZM30.35 51.56a21.58 21.58 0 0 1-16.18-7.3l-1.4 1.24a23.44 23.44 0 0 0 35.15 0l-1.4-1.24a21.58 21.58 0 0 1-16.17 7.3Z" fill="#28A928"/><path d="M46.06 27.34a16.1 16.1 0 0 1-.5 7.44 3.8 3.8 0 0 0-1.28-1.03 17.33 17.33 0 0 0-3.95-1.43 9.38 9.38 0 0 0-10.5-15.35 4.22 4.22 0 0 0-6.76 1.84 4.22 4.22 0 0 0-4.59 5.78 16 16 0 0 1-.17.08c-.52.28-1.12.59-1.54 1.17-.42.58-.53 1.24-.63 1.82-.04.25-.1.5-.16.74a5.1 5.1 0 0 1-.3.66c-.26.53-.57 1.14-.57 1.88s.3 1.34.57 1.88c.12.2.22.43.3.65.07.25.12.5.16.74.1.59.2 1.25.63 1.83.42.58 1.02.89 1.54 1.16.23.11.44.24.65.37.2.16.38.32.55.5.42.42.9.9 1.6 1.12.66.21 1.32.12 1.9.03.26-.04.51-.07.77-.08.26.01.52.04.77.08.06 0 .11.02.17.03-.17.28-.3.59-.38.92a2.37 2.37 0 0 0 .41 2.01c.88 1.14 2.56 1.44 4.01.72a11.86 11.86 0 0 1 10.83.07A15.96 15.96 0 0 1 14.4 30 15.96 15.96 0 0 1 40 17.32a16.05 16.05 0 0 1 5.66 8.25l1.8-.52a17.94 17.94 0 0 0-6.31-9.22A17.83 17.83 0 0 0 12.54 30c0 9.82 7.98 17.81 17.8 17.81 4.59 0 9-1.76 12.3-4.93a2.73 2.73 0 0 0 1.04-1.08 17.74 17.74 0 0 0 4.23-14.77l-1.85.31Zm-1.72 9.11a.57.57 0 0 1-.07.46c-.32.41-1.06.5-1.68.19a13.75 13.75 0 0 0-9.47-1.07h-.01c-1 .25-1.96.6-2.87 1.06-.62.32-1.36.24-1.69-.18a.57.57 0 0 1-.06-.46c.07-.31.35-.75.9-1.03a15.62 15.62 0 0 1 14.05 0c.55.28.83.72.9 1.03ZM41.6 25.31a7.48 7.48 0 0 1-3.96 6.61c-1.87-.13-3.75.04-5.57.5.24-.46.37-.96.39-1.48 0-.74-.31-1.35-.58-1.88a3.4 3.4 0 0 1-.4-1.05 3.75 3.75 0 1 0-1.13-2.7v.05a5.7 5.7 0 0 0-1.1-.69 5.31 5.31 0 0 1-.83-.52 4.22 4.22 0 0 0 2.53-5.65 7.5 7.5 0 0 1 10.65 6.8Zm-9.38 0a1.88 1.88 0 1 1 3.75 0 1.88 1.88 0 0 1-3.75 0Zm-5.16-7.5a2.34 2.34 0 1 1 0 4.7 2.34 2.34 0 0 1 0-4.7Zm-4.68 2.82c.17 0 .33.01.5.05a4.22 4.22 0 0 0 1.75 2.92 2.34 2.34 0 1 1-2.25-2.97Zm1.4 16.64c-.35 0-.7.04-1.04.1-.42.06-.8.12-1.06.03a2.7 2.7 0 0 1-.86-.67 6.66 6.66 0 0 0-.76-.67c-.28-.2-.57-.37-.88-.52-.38-.2-.73-.38-.9-.6-.16-.23-.22-.62-.3-1.04a6.92 6.92 0 0 0-.22-1 6.53 6.53 0 0 0-.4-.93c-.2-.38-.37-.74-.37-1.03 0-.3.18-.66.37-1.04.16-.3.3-.6.4-.92.1-.33.18-.67.23-1 .07-.42.13-.82.3-1.04.16-.22.51-.4.89-.6l.4-.22a4.22 4.22 0 0 0 6.66-1.45c.17.15.34.3.5.47.24.24.5.47.76.68.28.2.58.37.89.52.37.2.73.38.9.6.15.22.22.62.29 1.03.05.34.12.68.22 1.01.11.32.25.63.4.92.2.38.38.74.38 1.04 0 .3-.18.65-.37 1.04a6.51 6.51 0 0 0-.5 1.23c-.4.17-.78.35-1.16.54a3.52 3.52 0 0 0-1.89 2.29c-.06.27-.08.55-.05.83-.26.25-.5.46-.73.53a2.7 2.7 0 0 1-1.05-.03c-.35-.06-.7-.1-1.05-.1Zm16.5 3.95a13.74 13.74 0 0 0-12.36 0c-.62.31-1.36.23-1.69-.19a.57.57 0 0 1-.06-.45c.07-.32.35-.75.9-1.03.42-.21.85-.4 1.28-.58a3.5 3.5 0 0 0 2.73-.2c.74-.37 1.52-.67 2.32-.88a15.64 15.64 0 0 1 7.72 1.66c.55.28.83.71.9 1.03.02.08.02.16.02.24l-.49.5a1.64 1.64 0 0 1-1.28-.1Z" fill="#28A928"/><path d="M56.6 4.69v9.37h-2.82V4.7h-1.87v9.37H49.1V4.7h-1.88v15.47a3.29 3.29 0 0 0 2.73 3.23l-.85 27.96a3.76 3.76 0 0 0 3.75 3.96 3.75 3.75 0 0 0 3.74-3.96l-.2-6.38-1.87.06.2 6.39v.03a1.87 1.87 0 1 1-3.74-.03l.84-27.98h2.05l.6 19.71 1.87-.05-.6-19.7a3.29 3.29 0 0 0 2.73-3.24V4.69H56.6Zm0 15.47a1.4 1.4 0 0 1-1.41 1.4H50.5a1.4 1.4 0 0 1-1.4-1.4v-4.22h7.5v4.22ZM10.71 22.35c1.82-1.56 3.03-4.65 3.03-8.29 0-5.25-2.53-9.37-5.76-9.37S2.22 8.8 2.22 14.06c0 3.46 1.1 6.43 2.77 8.05l-.21 6.92 1.87.06.18-5.83c.66.2 1.36.23 2.04.07l.85 28.09v.14a1.87 1.87 0 1 1-3.75-.11v-.03l.63-20.45-1.88-.06-.62 20.44a3.77 3.77 0 0 0 1.1 2.86 3.75 3.75 0 0 0 6.39-2.86l-.88-29ZM4.1 14.06c0-4.48 2-7.5 3.88-7.5s3.88 3.02 3.88 7.5c0 4.49-2 7.5-3.88 7.5s-3.88-3.01-3.88-7.5ZM20.08 28.77l-.94 2.8 1.78.6.94-2.81-1.78-.6ZM25.36 32.86l-2.81.94.6 1.78 2.8-.94-.59-1.78ZM25.24 28.28l-1.04 1.56 2.81 1.88 1.04-1.56-2.81-1.88Z" fill="#28A928"/></svg>