<svg width="34" height="34" viewBox="0 0 34 34" fill="none" xmlns="http://www.w3.org/2000/svg">
    <g clip-path="url(#clip0_31_755)">
        <path d="M19.1731 33.0969C19.0356 33.1193 18.8976 33.14 18.7592 33.1589C18.8976 33.14 19.0356 33.1193 19.1731 33.0969Z" fill="#28A928"/>
        <path d="M19.5033 33.0405C19.4376 33.0526 19.3719 33.0637 19.3062 33.075C19.3719 33.0637 19.4376 33.0526 19.5033 33.0405Z" fill="#28A928"/>
        <path d="M18.3907 33.2048C18.2298 33.223 18.0679 33.2391 17.9055 33.2527C18.0679 33.2391 18.2298 33.223 18.3907 33.2048Z" fill="#28A928"/>
        <path d="M18.7076 33.166C18.6303 33.1763 18.5525 33.1859 18.475 33.195C18.5525 33.1859 18.6303 33.1763 18.7076 33.166Z" fill="#28A928"/>
        <path d="M19.9523 32.9514C19.8944 32.9638 19.8362 32.9761 19.7781 32.9879C19.8362 32.9761 19.8944 32.9638 19.9523 32.9514Z" fill="#28A928"/>
        <path d="M21.0672 32.6746C21.0204 32.6879 20.9736 32.7005 20.9268 32.7136C20.9736 32.7005 21.0204 32.6879 21.0672 32.6746Z" fill="#28A928"/>
        <path d="M20.7301 32.7668C20.6792 32.7802 20.6281 32.7938 20.577 32.8066C20.6281 32.7938 20.6792 32.7804 20.7301 32.7668Z" fill="#28A928"/>
        <path d="M20.289 32.877C20.2351 32.8895 20.1807 32.9014 20.1263 32.9135C20.1807 32.9014 20.2351 32.8895 20.289 32.877Z" fill="#28A928"/>
        <path d="M17.9001 33.2529C17.8133 33.2602 17.7264 33.2668 17.6393 33.2726C17.7264 33.2668 17.8133 33.2602 17.9001 33.2529Z" fill="#28A928"/>
        <path d="M33.0127 16.8118C33.0127 7.70046 25.624 0.311768 16.5127 0.311768C7.40139 0.311768 0.0126953 7.70046 0.0126953 16.8118C0.0126953 25.9231 7.40139 33.3118 16.5127 33.3118C16.6096 33.3118 16.7061 33.3098 16.8027 33.308V20.4634H13.2578V16.3321H16.8027V13.292C16.8027 9.76624 18.9551 7.84724 22.1002 7.84724C23.6063 7.84724 24.9009 7.95953 25.2783 8.00964V11.6945H23.1096C21.3985 11.6945 21.0672 12.5078 21.0672 13.7009V16.3321H25.1585L24.6252 20.4634H21.0672V32.6743C27.964 30.6971 33.0127 24.3432 33.0127 16.8118Z" fill="#28A928"/>
        <path d="M17.6028 33.2749C17.4311 33.286 17.2587 33.2948 17.0857 33.3006C17.2587 33.2948 17.4311 33.286 17.6028 33.2749Z" fill="#28A928"/>
        <path d="M17.0769 33.301C16.9858 33.304 16.8944 33.3063 16.803 33.3078C16.8944 33.3063 16.9858 33.304 17.0769 33.301Z" fill="#28A928"/>
    </g>
    <defs>
        <clipPath id="clip0_31_755">
            <rect width="33" height="33" fill="white" transform="translate(0.0126953 0.311768)"/>
        </clipPath>
    </defs>
</svg>
