<svg width="61" height="60" fill="none" xmlns="http://www.w3.org/2000/svg"><g clip-path="url(#a)" fill="#28A928"><path d="m31.8 47.82-7.5-1.31-1.77-5.07a2.63 2.63 0 0 0-2.48-1.76h-.96l-.46-2.54a.88.88 0 0 0-.87-.73H11.9a.88.88 0 0 0-.85.7l-.56 2.57h-.84c-1.12 0-2.12.7-2.48 1.76l-1.8 5.18L2 47.95C1 48.35.35 49.31.35 50.4v5.51c0 .49.39.88.87.88H4.4a4.1 4.1 0 0 0 7.99 0H22a4.1 4.1 0 0 0 8 0h3.08c.48 0 .88-.4.88-.88v-5.5c0-1.28-.92-2.36-2.18-2.59ZM12.6 38.17h4.42l.27 1.5h-5.01l.32-1.5Zm.05 3.26h7.4c.36 0 .7.24.82.59l1.52 4.39H10.93l1.73-4.98Zm13.35 16.81a2.33 2.33 0 1 1 0-4.66 2.33 2.33 0 0 1 0 4.66Zm6.2-3.2h-2.2a4.1 4.1 0 0 0-8 0h-9.63a4.08 4.08 0 0 0-3.54-3.19.88.88 0 0 0-.2 1.75 2.33 2.33 0 0 1-.26 4.64 2.33 2.33 0 0 1-2.05-3.43.88.88 0 1 0-1.55-.85c-.18.34-.31.7-.4 1.07H2.1V50.4c0-.36.22-.68.55-.81L6.4 48.1c.23-.1.42-.28.5-.52l1.94-5.56a.87.87 0 0 1 .82-.59h1.15L8.86 47a.88.88 0 0 0 .83 1.17h13.87l7.93 1.39c.42.07.72.43.72.85v4.62Z"/><path d="M14.72 49.82h-1.74a.88.88 0 0 0 0 1.76h1.74a.88.88 0 0 0 0-1.76ZM49.31 0a11.04 11.04 0 0 0-11.03 11.02c0 4.55 2.82 8.64 7.04 10.28l3.3 4.36a.88.88 0 0 0 1.4 0l3.29-4.36a11.06 11.06 0 0 0 7.04-10.28C60.35 4.95 55.4 0 49.3 0Zm3.15 19.74a.88.88 0 0 0-.4.3l-2.75 3.63-2.74-3.63a.88.88 0 0 0-.4-.3 9.28 9.28 0 1 1 12.42-8.72 9.3 9.3 0 0 1-6.13 8.72Z"/><path d="M49.31 5.37a5.78 5.78 0 0 0-5.77 5.77.88.88 0 0 0 1.76 0 4.02 4.02 0 1 1 1.07 2.73.88.88 0 1 0-1.28 1.2 5.78 5.78 0 1 0 4.23-9.7ZM39.78 29.26H20.77a8.63 8.63 0 0 1 0-17.25h13.72a.88.88 0 0 0 0-1.75H20.77a10.4 10.4 0 0 0 0 20.76h19a8.63 8.63 0 0 1 0 17.25h-2.46a.88.88 0 0 0 0 1.76h2.47a10.4 10.4 0 0 0 0-20.77Z"/></g><defs><clipPath id="a"><path fill="#fff" transform="translate(.35)" d="M0 0h60v60H0z"/></clipPath></defs></svg>